# xmcd CD database file
#
# Track frame offsets:
#	150
#	23246
#	43410
#	64740
#	83954
#	105639
#	128398
#	148989
#	169446
#	190715
#	208107
#	226718
#	246769
#	265214
#	286261
#	303147
#	317493
#
# Disc length: 4408 seconds
#
# Revision: 2
# Processed by: cddbd v1.5.2PL0 Copyright (c) Steve Scherf et al.
# Submitted via: CDex 1.70beta2
#
DISCID=ee113611
DTITLE=The Black Eyed Peas - The E.N.D. (The Energy Never Dies) (Japan Version)
DYEAR=2009
DGENRE=Hip-Hop
TTITLE0=Boom Boom Pow
TTITLE1=Rock That Body
TTITLE2=Meet Me Halfway
TTITLE3=Imma Be
TTITLE4=I Gotta Feeling
TTITLE5=Alive
TTITLE6=Missing You
TTITLE7=Ring-A-Ling
TTITLE8=Party All The Time
TTITLE9=Out Of My Head New
TTITLE10=Electric City
TTITLE11=Showdown
TTITLE12=Now Generation
TTITLE13=One Tribe
TTITLE14=Rockin To The Beat
TTITLE15=Simple Little Melody
TTITLE16=Mare
EXTD=YEAR: 2009
EXTT0=
EXTT1=
EXTT2=
EXTT3=
EXTT4=
EXTT5=
EXTT6=
EXTT7=
EXTT8=
EXTT9=
EXTT10=
EXTT11=
EXTT12=
EXTT13=
EXTT14=
EXTT15=
EXTT16=
PLAYORDER=
